<svg width="17" height="16" viewBox="0 0 17 16" fill="none" xmlns="http://www.w3.org/2000/svg">
<g clip-path="url(#clip0)">
<path fill-rule="evenodd" clip-rule="evenodd" d="M14.5103 1.48974C14.6093 1.58874 14.658 1.71814 14.6566 1.84825L14.6573 7.50015C14.6574 7.63283 14.6048 7.76012 14.5111 7.854C14.4173 7.94789 14.2901 8.00069 14.1574 8.00078C14.0247 8.00088 13.8974 7.94826 13.8036 7.8545C13.7097 7.76075 13.6569 7.63354 13.6568 7.50086L13.6568 3.05033L3.19655 13.5106C3.10278 13.6043 2.9756 13.657 2.84299 13.657C2.71039 13.657 2.58321 13.6043 2.48944 13.5106C2.39567 13.4168 2.34299 13.2896 2.34299 13.157C2.34299 13.0244 2.39567 12.8972 2.48944 12.8035L12.9497 2.34322L8.49985 2.34393C8.36717 2.34384 8.23996 2.29104 8.1462 2.19715C8.05245 2.10326 7.99983 1.97598 7.99992 1.8433C8.00002 1.71062 8.05282 1.5834 8.1467 1.48965C8.24059 1.3959 8.36787 1.34328 8.50056 1.34337L14.1574 1.34337C14.2897 1.34387 14.4165 1.39645 14.5103 1.48974Z" fill="white"/>
</g>
<defs>
<clipPath id="clip0">
<rect width="17" height="16" fill="white"/>
</clipPath>
</defs>
</svg>
