<svg width="17" height="16" viewBox="0 0 17 16" fill="none" xmlns="http://www.w3.org/2000/svg">
<path fill-rule="evenodd" clip-rule="evenodd" d="M17 7.49999C17 7.63999 16.943 7.76599 16.85 7.85699L12.854 11.854C12.7602 11.9479 12.633 12.0007 12.5004 12.0008C12.3677 12.0009 12.2404 11.9482 12.1465 11.8545C12.0526 11.7607 11.9998 11.6335 11.9997 11.5008C11.9996 11.3682 12.0522 11.2409 12.146 11.147L15.293 7.99999H0.5C0.367392 7.99999 0.240215 7.94731 0.146447 7.85355C0.0526784 7.75978 0 7.6326 0 7.49999C0 7.36738 0.0526784 7.24021 0.146447 7.14644C0.240215 7.05267 0.367392 6.99999 0.5 6.99999H15.293L12.146 3.85399C12.0522 3.76011 11.9996 3.63282 11.9997 3.50014C11.9998 3.36746 12.0526 3.24025 12.1465 3.14649C12.2404 3.05274 12.3677 3.00012 12.5004 3.00021C12.633 3.00031 12.7602 3.05311 12.854 3.14699L16.854 7.14699C16.9472 7.24088 16.9996 7.3677 17 7.49999Z" fill="white"/>
</svg>
