<svg width="347" height="52" viewBox="0 0 347 52" fill="none" xmlns="http://www.w3.org/2000/svg">
<path d="M12.1456 29.7477C12.3519 26.0549 14.6211 23.1827 18.4719 23.1827C22.8728 23.1827 24.7294 26.1233 24.7294 29.8845V49.5111H33.875V28.3116C33.875 20.926 29.8867 14.9764 21.2912 14.9764C18.0593 14.9764 14.3461 16.0706 12.1456 18.6692V0H3V49.5111H12.1456V29.7477Z" fill="black"/>
<path d="M38.9453 40.3475C38.9453 45.6131 43.3462 50.4685 50.5664 50.4685C55.5861 50.4685 58.818 48.1434 60.5371 45.4764C60.5371 46.7757 60.6747 48.6221 60.881 49.5111H69.2702C69.0639 48.3486 68.8576 45.9551 68.8576 44.177V27.6277C68.8576 20.8576 64.8693 14.8397 54.1421 14.8397C45.0653 14.8397 40.183 20.6524 39.6329 25.9181L47.7471 27.6277C48.0221 24.6872 50.2226 22.1569 54.2109 22.1569C58.0616 22.1569 59.9183 24.1401 59.9183 26.5336C59.9183 27.6961 59.2994 28.6535 57.374 28.9271L49.0536 30.158C43.4149 30.9786 38.9453 34.3295 38.9453 40.3475ZM52.4918 43.6983C49.5349 43.6983 48.0909 41.7835 48.0909 39.8004C48.0909 37.2017 49.9475 35.9024 52.2855 35.5605L59.9183 34.3979V35.9024C59.9183 41.8519 56.3425 43.6983 52.4918 43.6983Z" fill="black"/>
<path d="M96.5566 15.7287C95.8689 15.6603 95.1813 15.5919 94.4249 15.5919C91.5368 15.5919 86.8608 16.4125 84.7979 20.8576V15.8654H75.9274V49.5111H85.073V34.1244C85.073 26.8755 89.1301 24.6188 93.806 24.6188C94.6312 24.6188 95.5251 24.6872 96.5566 24.8923V15.7287Z" fill="black"/>
<path d="M122.916 49.5111H131.649C131.511 48.3486 131.305 46.0235 131.305 43.4248V15.8654H122.159V35.4237C122.159 39.3217 119.821 42.0571 115.764 42.0571C111.501 42.0571 109.575 39.0481 109.575 35.2869V15.8654H100.43V37.1333C100.43 44.4506 105.106 50.4001 113.289 50.4001C116.864 50.4001 120.784 49.0324 122.641 45.8867C122.641 47.2544 122.778 48.8273 122.916 49.5111Z" fill="black"/>
<path d="M150.193 5.81277H141.942V10.5314C141.942 13.5403 140.291 15.8654 136.716 15.8654H134.997V23.9349H141.117V39.5952C141.117 46.0918 145.242 49.9898 151.844 49.9898C154.526 49.9898 156.176 49.5111 157.001 49.1692V41.6468C156.52 41.7836 155.282 41.9203 154.182 41.9203C151.569 41.9203 150.193 40.9629 150.193 38.0223V23.9349H157.001V15.8654H150.193V5.81277Z" fill="black"/>
<path d="M160.759 40.3475C160.759 45.6131 165.16 50.4685 172.381 50.4685C177.4 50.4685 180.632 48.1434 182.351 45.4764C182.351 46.7757 182.489 48.6221 182.695 49.5111H191.084C190.878 48.3486 190.672 45.9551 190.672 44.177V27.6277C190.672 20.8576 186.684 14.8397 175.956 14.8397C166.879 14.8397 161.997 20.6524 161.447 25.9181L169.561 27.6277C169.836 24.6872 172.037 22.1569 176.025 22.1569C179.876 22.1569 181.732 24.1401 181.732 26.5336C181.732 27.6961 181.114 28.6535 179.188 28.9271L170.868 30.158C165.229 30.9786 160.759 34.3295 160.759 40.3475ZM174.306 43.6983C171.349 43.6983 169.905 41.7835 169.905 39.8004C169.905 37.2017 171.762 35.9024 174.1 35.5605L181.732 34.3979V35.9024C181.732 41.8519 178.157 43.6983 174.306 43.6983Z" fill="black"/>
<path d="M230.542 15.8654H218.577L206.887 28.38V0H197.742V49.5111H206.887V40.621L210.669 36.6546L219.609 49.5111H230.817L216.996 30.0212L230.542 15.8654Z" fill="black"/>
<path d="M231.135 40.3475C231.135 45.6131 235.536 50.4685 242.756 50.4685C247.776 50.4685 251.008 48.1434 252.727 45.4764C252.727 46.7757 252.864 48.6221 253.071 49.5111H261.46C261.254 48.3486 261.047 45.9551 261.047 44.177V27.6277C261.047 20.8576 257.059 14.8397 246.332 14.8397C237.255 14.8397 232.373 20.6524 231.823 25.9181L239.937 27.6277C240.212 24.6872 242.412 22.1569 246.401 22.1569C250.251 22.1569 252.108 24.1401 252.108 26.5336C252.108 27.6961 251.489 28.6535 249.564 28.9271L241.243 30.158C235.605 30.9786 231.135 34.3295 231.135 40.3475ZM244.682 43.6983C241.725 43.6983 240.281 41.7835 240.281 39.8004C240.281 37.2017 242.137 35.9024 244.475 35.5605L252.108 34.3979V35.9024C252.108 41.8519 248.532 43.6983 244.682 43.6983Z" fill="black"/>
<path d="M304.095 48.8431V40.3619H284.132V29.6625H302.203V21.638H284.132V11.0691H304.095V2.58783H275.128V48.8431H304.095Z" fill="#7C868A"/>
<path d="M322.169 48.8431V30.8368H340.11V22.5513H322.103V11.1343H342.328V2.58783H313.1V48.8431H322.169Z" fill="#7C868A"/>
</svg>
