<svg width="260" height="52" viewBox="0 0 260 52" fill="none" xmlns="http://www.w3.org/2000/svg">
<path d="M9.2001 30.0905C9.40762 26.3552 11.6903 23.4499 15.5641 23.4499C19.9912 23.4499 21.8589 26.4243 21.8589 30.2289V50.0817H31.059V28.6379C31.059 21.1671 27.0469 15.149 18.4002 15.149C15.149 15.149 11.4137 16.2558 9.2001 18.8844V0H0V50.0817H9.2001V30.0905Z" fill="#177EE5"/>
<path d="M36.1594 40.8125C36.1594 46.1388 40.5865 51.0502 47.8497 51.0502C52.8994 51.0502 56.1505 48.6983 57.8799 46.0005C57.8799 47.3148 58.0182 49.1825 58.2257 50.0817H66.6649C66.4574 48.9058 66.2499 46.4847 66.2499 44.6862V27.9462C66.2499 21.098 62.2378 15.0107 51.4467 15.0107C42.3158 15.0107 37.4045 20.8904 36.8511 26.2168L45.0136 27.9462C45.2903 24.9717 47.5038 22.4123 51.5159 22.4123C55.3896 22.4123 57.2573 24.4183 57.2573 26.8394C57.2573 28.0153 56.6348 28.9838 54.6979 29.2605L46.3279 30.5056C40.6556 31.3357 36.1594 34.7252 36.1594 40.8125ZM49.7866 44.202C46.8121 44.202 45.3595 42.2651 45.3595 40.2591C45.3595 37.6305 47.2271 36.3162 49.579 35.9703L57.2573 34.7943V36.3162C57.2573 42.3343 53.6603 44.202 49.7866 44.202Z" fill="#177EE5"/>
<path d="M94.1139 15.9099C93.4222 15.8408 92.7304 15.7716 91.9695 15.7716C89.0642 15.7716 84.3604 16.6017 82.2852 21.098V16.0483H73.3618V50.0817H82.5619V34.5177C82.5619 27.1852 86.6432 24.9025 91.347 24.9025C92.1771 24.9025 93.0763 24.9717 94.1139 25.1792V15.9099Z" fill="#177EE5"/>
<path d="M120.63 50.0817H129.415C129.277 48.9058 129.069 46.5539 129.069 43.9253V16.0483H119.869V35.832C119.869 39.7749 117.517 42.5418 113.436 42.5418C109.147 42.5418 107.211 39.4982 107.211 35.6936V16.0483H98.0105V37.5613C98.0105 44.9629 102.714 50.981 110.946 50.981C114.543 50.981 118.486 49.5975 120.354 46.4155C120.354 47.799 120.492 49.39 120.63 50.0817Z" fill="#177EE5"/>
<path d="M148.071 5.87976H139.77V10.6527C139.77 13.6964 138.11 16.0483 134.513 16.0483H132.783V24.2108H138.94V40.0515C138.94 46.623 143.09 50.5659 149.731 50.5659C152.428 50.5659 154.089 50.0817 154.919 49.7359V42.1268C154.435 42.2651 153.189 42.4035 152.083 42.4035C149.454 42.4035 148.071 41.435 148.071 38.4606V24.2108H154.919V16.0483H148.071V5.87976Z" fill="#177EE5"/>
<path d="M158.699 40.8125C158.699 46.1388 163.127 51.0502 170.39 51.0502C175.44 51.0502 178.691 48.6983 180.42 46.0005C180.42 47.3148 180.558 49.1825 180.766 50.0817H189.205C188.998 48.9058 188.79 46.4847 188.79 44.6862V27.9462C188.79 21.098 184.778 15.0107 173.987 15.0107C164.856 15.0107 159.945 20.8904 159.391 26.2168L167.554 27.9462C167.83 24.9717 170.044 22.4123 174.056 22.4123C177.93 22.4123 179.797 24.4183 179.797 26.8394C179.797 28.0153 179.175 28.9838 177.238 29.2605L168.868 30.5056C163.196 31.3357 158.699 34.7252 158.699 40.8125ZM172.327 44.202C169.352 44.202 167.9 42.2651 167.9 40.2591C167.9 37.6305 169.767 36.3162 172.119 35.9703L179.797 34.7943V36.3162C179.797 42.3343 176.2 44.202 172.327 44.202Z" fill="#177EE5"/>
<path d="M228.898 16.0483H216.862L205.102 28.7071V0H195.902V50.0817H205.102V41.0892L208.907 37.0771L217.899 50.0817H229.174L215.271 30.3672L228.898 16.0483Z" fill="#177EE5"/>
<path d="M229.494 40.8125C229.494 46.1388 233.922 51.0502 241.185 51.0502C246.234 51.0502 249.486 48.6983 251.215 46.0005C251.215 47.3148 251.353 49.1825 251.561 50.0817H260C259.792 48.9058 259.585 46.4847 259.585 44.6862V27.9462C259.585 21.098 255.573 15.0107 244.782 15.0107C235.651 15.0107 230.74 20.8904 230.186 26.2168L238.349 27.9462C238.625 24.9717 240.839 22.4123 244.851 22.4123C248.725 22.4123 250.592 24.4183 250.592 26.8394C250.592 28.0153 249.97 28.9838 248.033 29.2605L239.663 30.5056C233.991 31.3357 229.494 34.7252 229.494 40.8125ZM243.122 44.202C240.147 44.202 238.695 42.2651 238.695 40.2591C238.695 37.6305 240.562 36.3162 242.914 35.9703L250.592 34.7943V36.3162C250.592 42.3343 246.995 44.202 243.122 44.202Z" fill="#177EE5"/>
</svg>
