<svg width="285" height="64" viewBox="0 0 285 64" fill="none" xmlns="http://www.w3.org/2000/svg">
<path d="M44.48 18.8799C40.02 14.7099 30.88 10.2599 30.5 10.0699L30.23 9.93994L29.96 10.0699C29.7 10.1999 25.48 12.2599 21.39 14.8599H21.33V14.8999C19.36 16.1599 17.42 17.5299 15.98 18.8799C11.93 22.6699 9.63999 27.7399 9.54999 33.1499C9.45999 38.6299 11.69 44.0599 15.66 48.0399C17.6456 50.0226 20.0135 51.5808 22.62 52.6199L22.68 52.7299L22.79 52.6799C25.13 53.5899 27.64 54.0799 30.23 54.0799C35.73 54.0799 40.91 51.9399 44.8 48.0499C48.78 44.0699 51 38.6499 50.91 33.1599C50.82 27.7299 48.54 22.6699 44.48 18.8799V18.8799ZM49.67 33.1599C49.69 34.3899 49.58 35.6199 49.36 36.8299H41.84V32.0799H49.6C49.62 32.4399 49.66 32.7999 49.67 33.1599V33.1599ZM24.85 39.0799H29.6V40.3099L27.34 44.8299H24.85V39.0799ZM16.99 47.5599C16.95 47.5199 16.9 47.4799 16.86 47.4399V37.0899L17.85 39.0799H21.23L16.99 47.5599ZM16.86 24.0899H22.73L19.85 29.8399H16.86V24.0899V24.0899ZM15.62 29.8399H11.16C11.57 27.8099 12.3 25.8699 13.36 24.0899H15.62V29.8399ZM26.93 30.4599L29.61 25.0999V35.8399H26.24L27.93 32.4599L26.93 30.4599V30.4599ZM25.54 30.4599L26.54 32.4599L24.86 35.8199V24.0899H28.73L25.54 30.4599V30.4599ZM20.93 30.4599L23.61 25.0999V35.8399H20.24L21.93 32.4599L20.93 30.4599V30.4599ZM19.85 31.0799L20.54 32.4599L18.24 37.0699L16.86 34.3199V31.0899H19.85V31.0799ZM15.62 46.1399C14.6001 44.9772 13.7207 43.6984 13 42.3299L15.62 37.0899V46.1399V46.1399ZM18.62 37.8399L18.24 37.0799H23.61V37.8399H18.62V37.8399ZM24.85 37.0799H29.6V37.8399H24.85V37.0799ZM30.78 40.7299L30.85 40.5999V24.0899H47.09C47.43 24.6599 47.74 25.2499 48.01 25.8499H32.23V27.0899H35.61V35.8399H32.23V37.0799H35.61V44.8299H28.74L30.78 40.7299V40.7299ZM40.33 44.8299H36.84V37.0799H40.59V43.0699H41.21L40.33 44.8299V44.8299ZM40.6 35.8399H36.85V27.0899H40.6V35.8399ZM32.23 46.0699H39.72L37.84 49.8199H26.24L28.12 46.0699H32.23ZM42.6 43.0699H43.59V47.4399C42.13 48.8399 40.48 49.9799 38.71 50.8499L42.6 43.0699ZM44.84 43.0699H47.03C46.4 44.1499 45.67 45.1799 44.84 46.1299V43.0699ZM41.84 41.8299V38.0799H49.07C48.7403 39.3741 48.2778 40.6308 47.69 41.8299H41.84ZM41.84 30.8399V27.0899H48.51C48.96 28.2999 49.28 29.5599 49.47 30.8399H41.84ZM46.29 22.8499H30.85V20.0899H39.22V18.8499H30.85V16.0999H38.7C40.54 17.2799 42.32 18.5599 43.64 19.7899C44.64 20.7299 45.52 21.7599 46.29 22.8499V22.8499ZM30.23 11.3199C31.07 11.7399 33.78 13.1099 36.7 14.8599H23.76C26.68 13.1099 29.38 11.7399 30.23 11.3199ZM16.82 19.7799C18.14 18.5499 19.92 17.2699 21.76 16.0899H29.61V18.8499H21.24V20.0899H29.61V22.8499H14.17C14.9447 21.7376 15.8328 20.7088 16.82 19.7799V19.7799ZM10.95 31.0799H15.62V34.3099L12.33 40.8899C11.2827 38.4455 10.7582 35.8091 10.79 33.1499C10.8 32.4599 10.86 31.7699 10.95 31.0799V31.0799ZM17.94 48.4299L19.23 45.8399L21.74 50.8499C20.3863 50.1888 19.1116 49.377 17.94 48.4299V48.4299ZM30.23 52.8199C27.9 52.8199 25.64 52.3899 23.51 51.5999L19.93 44.4399L22.62 39.0699H23.61V46.0599H26.72L24.22 51.0599H38.25C35.77 52.1999 33.05 52.8199 30.23 52.8199V52.8199Z" fill="#F5A519"/>
<path d="M71.6799 44.5401H88.8399V46.4201H68.1499C68.4199 46.0001 68.8399 45.3801 69.3999 44.5401C72.9299 39.2401 78.2399 31.3001 85.3099 20.7201H68.1499V18.8401H88.8399C88.5699 19.2601 88.1499 19.8801 87.5899 20.7201C84.0499 26.0201 78.7499 33.9601 71.6799 44.5401ZM117.1 18.8401V20.7201H98.3199V32.4501H113.69V34.3601H98.3199V44.5401H117.13V46.4201H96.4399V18.8401H117.1V18.8401ZM246.65 18.8401V20.7201H227.87V32.4501H243.24V34.3601H227.87V44.5401H246.68V46.4201H225.99V18.8401H246.65ZM143.56 41.1201V18.8401H145.44V46.4201C141.27 41.4901 135 34.0901 126.63 24.2201V46.4201H124.75V18.8401C128.91 23.8001 135.18 31.2301 143.56 41.1201V41.1201ZM155.61 18.8401V31.8401C158.26 29.6601 163.55 25.3201 171.48 18.8401H174.43C171.75 21.0201 167.74 24.3301 162.39 28.7401C165.07 32.6701 169.08 38.5601 174.43 46.4101H172.18C169.68 42.7501 165.93 37.2701 160.95 29.9501C159.75 30.9301 157.97 32.3901 155.61 34.3301V46.4101H153.73V18.8301C154.14 18.8401 154.77 18.8401 155.61 18.8401V18.8401ZM183.56 18.8401V46.4201H181.68V18.8401H183.56V18.8401ZM211.89 32.6101H218.74C218.74 33.9601 218.56 35.2501 218.19 36.4801C217.85 37.7101 217.34 38.8501 216.68 39.9001C215.45 41.8601 213.81 43.4301 211.75 44.6101C209.69 45.8101 207.43 46.4101 204.98 46.4101C203.63 46.4101 202.34 46.2301 201.11 45.8601C199.88 45.5201 198.74 45.0101 197.69 44.3501C195.73 43.1201 194.16 41.4801 192.98 39.4201C191.78 37.3601 191.18 35.0901 191.18 32.6101C191.18 31.2801 191.36 30.0101 191.73 28.7801C192.07 27.5501 192.58 26.4101 193.24 25.3601C194.47 23.4001 196.11 21.8301 198.17 20.6501C200.23 19.4501 202.5 18.8501 204.98 18.8501C206.87 18.8501 208.66 19.2101 210.36 19.9201C212.03 20.6601 213.49 21.6501 214.74 22.9001L214.41 23.2301L213.42 24.2201C212.335 23.1338 211.047 22.2709 209.63 21.6801C208.168 21.0369 206.587 20.7098 204.99 20.7201C203.84 20.7201 202.73 20.8801 201.68 21.2001C200.6 21.4901 199.61 21.9201 198.7 22.4901C197.003 23.5518 195.598 25.0193 194.61 26.7601C193.58 28.5301 193.06 30.4801 193.06 32.6101C193.06 33.7601 193.22 34.8701 193.54 35.9201C193.86 37.0001 194.3 37.9901 194.87 38.9001C195.9 40.5901 197.31 41.9601 199.1 42.9901C200.87 44.0201 202.83 44.5401 204.99 44.5401C206.02 44.5401 207.02 44.4201 207.97 44.1701C208.95 43.9001 209.86 43.5301 210.69 43.0701C212.29 42.2101 213.61 41.0301 214.67 39.5401C215.75 38.0401 216.44 36.3701 216.73 34.5301H211.91C211.89 34.1101 211.89 33.4701 211.89 32.6101V32.6101ZM273.11 41.1201V18.8401H274.99V46.4201C270.82 41.4901 264.55 34.0901 256.18 24.2201V46.4201H254.3V18.8401C258.47 23.8001 264.74 31.2301 273.11 41.1201V41.1201Z" fill="white"/>
</svg>
