<svg width="285" height="64" fill="none" xmlns="http://www.w3.org/2000/svg"><path d="M44.48 18.88c-4.46-4.17-13.6-8.62-13.98-8.81l-.27-.13-.27.13c-.26.13-4.48 2.19-8.57 4.79h-.06v.04c-1.97 1.26-3.91 2.63-5.35 3.98-4.05 3.79-6.34 8.86-6.43 14.27-.09 5.48 2.14 10.91 6.11 14.89a20.7 20.7 0 006.96 4.58l.06.11.11-.05c2.34.91 4.85 1.4 7.44 1.4 5.5 0 10.68-2.14 14.57-6.03 3.98-3.98 6.2-9.4 6.11-14.89-.09-5.43-2.37-10.49-6.43-14.28zm5.19 14.28c.02 1.23-.09 2.46-.31 3.67h-7.52v-4.75h7.76c.02.36.06.72.07 1.08zm-24.82 5.92h4.75v1.23l-2.26 4.52h-2.49v-5.75zm-7.86 8.48c-.04-.04-.09-.08-.13-.12V37.09l.99 1.99h3.38l-4.24 8.48zm-.13-23.47h5.87l-2.88 5.75h-2.99v-5.75zm-1.24 5.75h-4.46c.41-2.03 1.14-3.97 2.2-5.75h2.26v5.75zm11.31.62l2.68-5.36v10.74h-3.37l1.69-3.38-1-2zm-1.39 0l1 2-1.68 3.36V24.09h3.87l-3.19 6.37zm-4.61 0l2.68-5.36v10.74h-3.37l1.69-3.38-1-2zm-1.08.62l.69 1.38-2.3 4.61-1.38-2.75v-3.23h2.99v-.01zm-4.23 15.06A19.696 19.696 0 0113 42.33l2.62-5.24v9.05zm3-8.3l-.38-.76h5.37v.76h-4.99zm6.23-.76h4.75v.76h-4.75v-.76zm5.93 3.65l.07-.13V24.09h16.24c.34.57.65 1.16.92 1.76H32.23v1.24h3.38v8.75h-3.38v1.24h3.38v7.75h-6.87l2.04-4.1zm9.55 4.1h-3.49v-7.75h3.75v5.99h.62l-.88 1.76zm.27-8.99h-3.75v-8.75h3.75v8.75zm-8.37 10.23h7.49l-1.88 3.75h-11.6l1.88-3.75h4.11zm10.37-3h.99v4.37c-1.46 1.4-3.11 2.54-4.88 3.41l3.89-7.78zm2.24 0h2.19c-.63 1.08-1.36 2.11-2.19 3.06v-3.06zm-3-1.24v-3.75h7.23a19.4 19.4 0 01-1.38 3.75h-5.85zm0-10.99v-3.75h6.67c.45 1.21.77 2.47.96 3.75h-7.63zm4.45-7.99H30.85v-2.76h8.37v-1.24h-8.37V16.1h7.85c1.84 1.18 3.62 2.46 4.94 3.69 1 .94 1.88 1.97 2.65 3.06zM30.23 11.32c.84.42 3.55 1.79 6.47 3.54H23.76c2.92-1.75 5.62-3.12 6.47-3.54zm-13.41 8.46c1.32-1.23 3.1-2.51 4.94-3.69h7.85v2.76h-8.37v1.24h8.37v2.76H14.17a19.58 19.58 0 012.65-3.07zm-5.87 11.3h4.67v3.23l-3.29 6.58a19.075 19.075 0 01-1.54-7.74c.01-.69.07-1.38.16-2.07zm6.99 17.35l1.29-2.59 2.51 5.01a20.02 20.02 0 01-3.8-2.42zm12.29 4.39c-2.33 0-4.59-.43-6.72-1.22l-3.58-7.16 2.69-5.37h.99v6.99h3.11l-2.5 5h14.03c-2.48 1.14-5.2 1.76-8.02 1.76z" fill="#F5A519"/><path d="M71.68 44.54h17.16v1.88H68.15c.27-.42.69-1.04 1.25-1.88 3.53-5.3 8.84-13.24 15.91-23.82H68.15v-1.88h20.69c-.27.42-.69 1.04-1.25 1.88-3.54 5.3-8.84 13.24-15.91 23.82zm45.42-25.7v1.88H98.32v11.73h15.37v1.91H98.32v10.18h18.81v1.88H96.44V18.84h20.66zm129.55 0v1.88h-18.78v11.73h15.37v1.91h-15.37v10.18h18.81v1.88h-20.69V18.84h20.66zM143.56 41.12V18.84h1.88v27.58c-4.17-4.93-10.44-12.33-18.81-22.2v22.2h-1.88V18.84c4.16 4.96 10.43 12.39 18.81 22.28zm12.05-22.28v13c2.65-2.18 7.94-6.52 15.87-13h2.95c-2.68 2.18-6.69 5.49-12.04 9.9 2.68 3.93 6.69 9.82 12.04 17.67h-2.25c-2.5-3.66-6.25-9.14-11.23-16.46-1.2.98-2.98 2.44-5.34 4.38v12.08h-1.88V18.83c.41.01 1.04.01 1.88.01zm27.95 0v27.58h-1.88V18.84h1.88zm28.33 13.77h6.85c0 1.35-.18 2.64-.55 3.87-.34 1.23-.85 2.37-1.51 3.42-1.23 1.96-2.87 3.53-4.93 4.71-2.06 1.2-4.32 1.8-6.77 1.8-1.35 0-2.64-.18-3.87-.55-1.23-.34-2.37-.85-3.42-1.51-1.96-1.23-3.53-2.87-4.71-4.93-1.2-2.06-1.8-4.33-1.8-6.81 0-1.33.18-2.6.55-3.83.34-1.23.85-2.37 1.51-3.42 1.23-1.96 2.87-3.53 4.93-4.71 2.06-1.2 4.33-1.8 6.81-1.8 1.89 0 3.68.36 5.38 1.07 1.67.74 3.13 1.73 4.38 2.98l-.33.33-.99.99a11.745 11.745 0 00-3.79-2.54 11.34 11.34 0 00-4.64-.96c-1.15 0-2.26.16-3.31.48-1.08.29-2.07.72-2.98 1.29a12.055 12.055 0 00-4.09 4.27c-1.03 1.77-1.55 3.72-1.55 5.85 0 1.15.16 2.26.48 3.31.32 1.08.76 2.07 1.33 2.98 1.03 1.69 2.44 3.06 4.23 4.09 1.77 1.03 3.73 1.55 5.89 1.55 1.03 0 2.03-.12 2.98-.37.98-.27 1.89-.64 2.72-1.1 1.6-.86 2.92-2.04 3.98-3.53 1.08-1.5 1.77-3.17 2.06-5.01h-4.82c-.02-.42-.02-1.06-.02-1.92zm61.22 8.51V18.84h1.88v27.58c-4.17-4.93-10.44-12.33-18.81-22.2v22.2h-1.88V18.84c4.17 4.96 10.44 12.39 18.81 22.28z" fill="#2C0305"/></svg>